/* XPM */
static char *__32x32[] = {
/* columns rows colors chars-per-pixel */
"32 32 14 1 ",
"  c #005BCF",
". c #4E4E4E",
"X c #7E7E7E",
"o c #73747B",
"O c #97989C",
"+ c #B8B9BB",
"@ c gray79",
"# c #D0D0D0",
"$ c #A4A4A8",
"% c #AEAFB6",
"& c #9597A1",
"* c gray87",
"= c #9B9B9B",
"- c #ABACAF",
/* pixels */
"                                ",
"            .....XXX            ",
"         ....oooO++XXX.         ",
"        ..ooo@@####++$..        ",
"      ...o@@@@#######@o...      ",
"     ..oo@@@@OOOOOo@@@@oo..     ",
"    ..o@@@@OO%%%%&&oo@@@@oXX    ",
"    .o@@@oO%%%%%&&&&&oo@##OX    ",
"   ..o@@o%%%%%%&@*&&&&&O##O..   ",
"  ..o@@o%%%%%%oo@*o&&&%%O#@o..  ",
"  .o@@@O%%%%o*o*@**o*%%%o@@@o.  ",
"  .o@@O%%%%o*&*@&&@*%*%&&o@@O=  ",
" ..o##O%%%oo@@@@@@###*o&&o@#-== ",
" .o##O%%%&oooooooOOOOooo&&O##-= ",
" .O##O%%&&ooooo*####oooo%%O##-= ",
" XO##O%&&ooooo**##@@@ooO%%O##-= ",
" XO##o&&&oooo**%%@@&&oO%%%O##O= ",
" XO#@o&&ooo@O*%Oo@@oOO%%%%O##OX ",
" XO@@o&&ooo#O*O*o@@O#O%%%%O##OX ",
" X.o@@o&ooO*O***&@#%#OO%%O##OXX ",
"  .o@@o&OOOOo****####OO%%O##OX  ",
"  .o@@@O%OOoo*****###OO%O###O.  ",
"  ..o@#O%Ooooo***OO#OOO%O##O..  ",
"   ..O##o&&oOOO*****O%%O##o..   ",
"    XO#@@oo%%OO%%%%%%OO##@o.    ",
"    XXo@@@#OO%%%%%%OO###@o..    ",
"     ..oO####OOOOOO###@oo..     ",
"      .XXO###########@o...      ",
"        XXOOO######Ooo..        ",
"         XXXXOOOOOo....         ",
"            XXXXX...            ",
"                                "
};
