/* XPM */
static char *_1_32x32[] = {
/* columns rows colors chars-per-pixel */
"32 32 14 1 ",
"  c #005BCF",
". c #4E4E4E",
"X c #7E7E7E",
"o c #73747B",
"O c #97989C",
"+ c gray67",
"@ c gray79",
"# c #D0D0D0",
"$ c #919090",
"% c #9597A1",
"& c #6D6F7D",
"* c #AEAFB6",
"= c gray87",
"- c #93949E",
/* pixels */
"                                ",
"            ........X           ",
"          ......oooO++X         ",
"        ......oo@@####++$       ",
"       ..%..oo@@@#######..      ",
"      ..&..o@@@oOOOOO@@@@..     ",
"     ..%..o@@oO*****%oo@@@..    ",
"     .&&.o@ooO*****%%%ooo@@X    ",
"    ..%..o@o******@=%%%%oo#XX   ",
"    .&&.o@o*****Oo@=o%%%%O##X   ",
"   ..%..o@O***O=o=@==o=%*O#@..  ",
"   .&&.o@O***O=%=@%%@=%=**o@@.  ",
"  ..%..O#O**Oo@@@@@@@##=O%o@@.X ",
"  .&&.O#O***ooooooooOOOOoo%o@#X ",
"  .%%XO#O**%ooooo=@###Oooo%O##X ",
"  .&-XO#O*%ooooo==###@@ooo*O##X ",
"  .**XO#o%%oooo==**#@%%oo**O##X ",
"  .--XO@o%%oo@o=*OO@@ooO***O##X ",
"  .**Xo@o%%oo@O=O=o@@o#O***O##X ",
"  .X-..o@o%oo=O===%@@*#OO*O##XX ",
"   X%%.o@o%OOOO====####OO*O##X  ",
"   ..&..o@OOOOo=====###OOO##XX  ",
"    .%%.o#OOOooo===OO#OOOO##X   ",
"    ..&.XO#o%ooOO=====O*OO#XX   ",
"     .**XO@ooo*OO*****OOO##X    ",
"     XX-X.o@@OO******OO###X.    ",
"      XX%..O###OOOOOO####..     ",
"       ..&XXOO##########..      ",
"        .XXXXXOO######X..       ",
"          XXXXXXOOOOX..         ",
"            XXXXXXXX.           ",
"                                "
};
