/* XPM */
static char *__32x32[] = {
/* columns rows colors chars-per-pixel */
"32 32 18 1 ",
"  c #005BCF",
". c #4E4E4E",
"X c #7E7E7E",
"o c #9B9B9B",
"O c #73747B",
"+ c #97989C",
"@ c #B8B9BB",
"# c gray67",
"$ c gray79",
"% c #D0D0D0",
"& c #919090",
"* c #A4A4A8",
"= c #9597A1",
"- c #6D6F7D",
"; c #AEAFB6",
": c #93949E",
"> c gray87",
", c #BABBC0",
/* pixels */
"                                ",
"           ....XXXXo            ",
"         ...OO+@#XXX..          ",
"       ...$$$%%%@@#&....        ",
"      ..$$$$%%%%%%*O..=..       ",
"     ..$$$$+++++O$$$O..-.X      ",
"    ..$$$++;;;;==OO$$O..;XX     ",
"    .$$O++;;;;====OOO$+X::.     ",
"   ..$$+;;;;;=$>====O++XX=..    ",
"   .$$+;;;;;OO$>O===;+%+.--.    ",
"  ..$%+;;;O>O>$>>O>;;+$O..=.o   ",
"  .$%+;;;O>=>$==$>;>;=O$O.:;o   ",
" .X%%+;;OO$$$$$$%%%>O=O$OXo,oo  ",
" X%%+;;=OOOOOOO++++OOO=O%+o;;o  ",
" X%%+;==OOOOO>%%%%OOOO;+%+o,,o  ",
" X%%+==OOOOO>>%%$$$OO+;+%+X;;o  ",
" X%$O==OOOO>>;;$$==O+;;+%+X;,o  ",
" X$$O==OO$+>;+O$$O++;;;+%+X::o  ",
" .$$O==OO%+>+>O$$+%+;;;+%+X;;X  ",
" ..$$O=O+>+>>>=$%;%++;+%+XX:XX  ",
"  .$$O;+++O>>>>%%%%++;+%+X;;.   ",
"  ..$%+++OO>>>>>%%%+++%+XX:..   ",
"   .%%++OOOO>>>++%++++%+X;=.    ",
"   XX%$O=O+++>>>>>+;+++X.-..    ",
"    X$$OO+;++;;;;;+++%+.==.     ",
"    ..$$%++;;;;;;++%%+..-..     ",
"     .X%%%%++++++%%%O..=..      ",
"      XX%%%%%%%%%%+O..-..       ",
"       XXX%%%%%%++......        ",
"         XXX++++......          ",
"           XXXX.....            ",
"                                "
};
