/* XPM */
static char *__32x32[] = {
/* columns rows colors chars-per-pixel */
"32 32 14 1 ",
"  c #005BCF",
". c #4E4E4E",
"X c #7E7E7E",
"o c #97989C",
"O c #B8B9BB",
"+ c #9597A1",
"@ c #73747B",
"# c gray84",
"$ c #919090",
"% c #6D6F7D",
"& c gray79",
"* c #AEAFB6",
"= c gray87",
"- c #BABBC0",
/* pixels */
"                                ",
"           ..XXXXoo...          ",
"         ...oOOXXX+++..         ",
"        ..@o###OO$.%%%..        ",
"       ..@#######@..+++.        ",
"       .@##&oo@&&&@.%%%XX       ",
"      .X##&o*++@&&&..+**X       ",
"      Xo#oo*++++@@&@Xooo..      ",
"     XXo#**+++=+++&oXX*++.      ",
"     Xo#o*++@@=+++o#oX%%%.      ",
"     X##@++@@==@+*o#&.+++.      ",
"     X#&o++==&+==**&&.%%ooo     ",
"    XX&&++@&&&##=o+&&..*--o     ",
"    X@&@++@@@oooo@+@&@Xo**o     ",
"    .@&@++@@o=##@@+@#oX*--o     ",
"    .@&@+@@o==&&@@+o&oXoo*o     ",
"    .@&@+ooo=+&+@@*o#oX***o     ",
"    .@&@*ooo+@&@o**o#oXoooX     ",
"    .@&o*oo@@=&oo**o&oX***X     ",
"    ..##*@@@==#*oo*#&XXoooX     ",
"     X##+@@@==##oo*#&X***X.     ",
"     X#&@@@o===&ooo##Xooo.      ",
"     X@&@@oo==o&ooo#oX**+.      ",
"     ..@&**oo===**#oXX%%%.      ",
"      .o#oo*o***oo&oX+++..      ",
"      XX###o***o&&#X.%%%.       ",
"       Xo&##ooo###@.+++..       ",
"       XXo&####&#@..%%%.        ",
"        XXoo##&o@..+++..        ",
"         XXXoo@...%%%..         ",
"           XX.........          ",
"                                "
};
