/* XPM */
static char *__32x32[] = {
/* columns rows colors chars-per-pixel */
"32 32 14 1 ",
"  c #005BCF",
". c #4E4E4E",
"X c #7E7E7E",
"o c #73747B",
"O c #97989C",
"+ c gray67",
"@ c gray79",
"# c #D0D0D0",
"$ c #919090",
"% c #9597A1",
"& c #6D6F7D",
"* c #AEAFB6",
"= c gray87",
"- c #93949E",
/* pixels */
"                                ",
"            ........X           ",
"          ......oooO++X         ",
"        ......oo@@####++$       ",
"       ..%..oo@@@#######..      ",
"      ..&..o@@@oOOOOO@@@@..     ",
"     ..%..o@@@O*****%o@@@@..    ",
"     .&&.o@@oO*****%%%oo@@@X    ",
"    ..%..o@o******%%%%%%o@#XX   ",
"    .&&.o@o******%%%%%%%%O##X   ",
"   ..%..o@O****=@%@@@%%%*O#@..  ",
"   .&&.o@O****=@%=====%***o@@.  ",
"  ..%..O#O***@=%%@=@@=***%o@@.X ",
"  .&&.O#O***%=@=%%%%###*%%%o@#X ",
"  .%%XO#O**%%@@%%==**#*@%%%O##X ",
"  .&-XO#O*%%==@%=%*#*%%@%%*O##X ",
"  .**XO#o%%%@=oo**##oo@=%**O##X ",
"  .--XO@o%%%oo@OO##oo===***O##X ",
"  .**Xo@o%%%o=#=OOoo@==O***O##X ",
"  .X-..o@o%%oO#====o=#OO**O##XX ",
"   X%%.o@o%**OO@@@@O##OO**O##X  ",
"   ..&..o@O***o@@@OOO#O**O##XX  ",
"    .%%.o#O**%%ooOOOOO***O##X   ",
"    ..&.XO#o%%%OOOOOO***O##XX   ",
"     .**XO@@oo********OO###X    ",
"     XX-X.o@@#O******O####X.    ",
"      XX%..O###OOOOOO####..     ",
"       ..&XXOO##########..      ",
"        .XXXXXOO######X..       ",
"          XXXXXXOOOOX..         ",
"            XXXXXXXX.           ",
"                                "
};
