/* XPM */
static char *__32x32[] = {
/* columns rows colors chars-per-pixel */
"32 32 18 1 ",
"  c #005BCF",
". c #4E4E4E",
"X c #7E7E7E",
"o c #9B9B9B",
"O c #73747B",
"+ c #97989C",
"@ c #B8B9BB",
"# c gray67",
"$ c gray79",
"% c #D0D0D0",
"& c #919090",
"* c #A4A4A8",
"= c #9597A1",
"- c #6D6F7D",
"; c #AEAFB6",
": c #93949E",
"> c gray87",
", c #BABBC0",
/* pixels */
"                                ",
"           ....XXXXo            ",
"         ...OO+@#XXX..          ",
"       ...$$$%%%@@#&....        ",
"      ..$$$$%%%%%%*O..=..       ",
"     ..$$$$+++++O$$$O..-.X      ",
"    ..$$$%+;;;;==O$$$O..;XX     ",
"    .$$$++;;;;====OO$$+X::.     ",
"   ..$$+;;;;;=======O%+XX=..    ",
"   .$$+;;;;;========;+%+.--.    ",
"  ..$%+;;;=>$=$$$==;;+$O..=.o   ",
"  .$%+;;;=>$=>>>>>;;;=O$O.:;o   ",
" .X%%+;;=$>==$>$%>;;==O$OXo,oo  ",
" X%%+;;==>$>===;%%%====O%+o;;o  ",
" X%%+;===$$==>>;;%=$==;+%+o,,o  ",
" X%%+===>>$=>;;%===$=;;+%+X;;o  ",
" X%$O===$>O+;;%$OO$>;;;+%+X;,o  ",
" X$$O===OO%++%$OO>>>;;;+%+X::o  ",
" .$$O===O>%>+OOO$>>+;;;+%+X;;X  ",
" ..$$O==++%>>>>O>%++;;+%+XX:XX  ",
"  .$$O;;;+O$$$%+%%++;;+%+X;;.   ",
"  ..$%+;;=O$$%+++%+;;+%+XX:..   ",
"   .%%+;===O++++++;;;+%+X;=.    ",
"   XX%$O==;++++++;;;+%+X.-..    ",
"    X$$$O+;;;;;;;;++%%+.==.     ",
"    ..$$%%+;;;;;;+%%%+..-..     ",
"     .X%%%%++++++%%%O..=..      ",
"      XX%%%%%%%%%%+O..-..       ",
"       XXX%%%%%%++......        ",
"         XXX++++......          ",
"           XXXX.....            ",
"                                "
};
