/* XPM */
static char *__32x32[] = {
/* columns rows colors chars-per-pixel */
"32 32 14 1 ",
"  c #005BCF",
". c #4E4E4E",
"X c #7E7E7E",
"o c #97989C",
"O c #B8B9BB",
"+ c #9597A1",
"@ c #73747B",
"# c gray84",
"$ c #919090",
"% c #6D6F7D",
"& c gray79",
"* c #AEAFB6",
"= c gray87",
"- c #BABBC0",
/* pixels */
"                                ",
"           ..XXXXoo...          ",
"         ...oOOXXX+++..         ",
"        ..@o###OO$.%%%..        ",
"       ..@#######@..+++.        ",
"       .@##&oo@&&&@.%%%XX       ",
"      .X##&o*++@&&&..+**X       ",
"      Xo#oo*++++@@&@Xooo..      ",
"     XXo#**+++++++&oXX*++.      ",
"     Xo#o*++++++++o#oX%%%.      ",
"     X##@++=&+&++*o#&.+++.      ",
"     X#&o++=+===***&&.%%ooo     ",
"    XX&&++&&+&#=**+&&..*--o     ",
"    X@&@++=&+**##++@&@Xo**o     ",
"    .@&@++&=*=*#+&+@#oX*--o     ",
"    .@&@+==*=*&++&+o&oXoo*o     ",
"    .@&@+#==*+&@&=*o#oX***o     ",
"    .@&@*oo=@&@===*o#oXoooX     ",
"    .@&o*o==@@@==o*o&oX***X     ",
"    ..##*@@&==o#oo*#&XXoooX     ",
"     X##++@&##o#oo*#&X***X.     ",
"     X#&@++o##o&o*o##Xooo.      ",
"     X@&@+*ooooo**o#oX**+.      ",
"     ..@&***ooo***#oXX%%%.      ",
"      .o#oo*****oo&oX+++..      ",
"      XX###o***o&&#X.%%%.       ",
"       Xo&##ooo###@.+++..       ",
"       XXo&####&#@..%%%.        ",
"        XXoo##&o@..+++..        ",
"         XXXoo@...%%%..         ",
"           XX.........          ",
"                                "
};
