/* XPM */
static char *__32x32[] = {
/* columns rows colors chars-per-pixel */
"32 32 7 1 ",
"  c #005BCF",
". c #7E7E7E",
"X c #AEAFB6",
"o c #93949E",
"O c #4E4E4E",
"+ c #6D6F7D",
"@ c #9597A1",
/* pixels */
"                                ",
"           ......               ",
"           .XXXX.               ",
"           .oooo.               ",
"           .XXXX.               ",
"           O++++O               ",
"           O@@@@O               ",
"           .oooo.               ",
"           .XXXX.               ",
"           .oooo.               ",
"           O@@@@O               ",
"           O++++O               ",
"           .XXXX.               ",
"           .oooo.               ",
"           .XXXX.               ",
"           .oooo.               ",
"           .XXXX.               ",
"           .oooo.               ",
"           .XXXX.               ",
"           .oooo.               ",
"           .XXXX.               ",
"           .oooo.               ",
"           O@@@@O               ",
"           O++++O               ",
"           O@@@@O               ",
"           O++++O               ",
"           O@@@@O               ",
"           O++++O               ",
"           O@@@@O               ",
"           O++++O               ",
"           OOOOOO               ",
"                                "
};
