/* XPM */
static char *exit_open[] = {
/* columns rows colors chars-per-pixel */
"32 32 8 1 ",
"  c #70287B",
". c #E11313",
"X c #06B318",
"o c #FAF009",
"O c #1D3897",
"+ c #0809F0",
"@ c #005BCF",
"# c #930F9E",
/* pixels */
"@@@#@@@@@@@@@@@@@@@@@@@@@@@@#@@@",
"@@@##@@@@@@@@@@@@@@@@@@@@@@##@@@",
"@@@@@#@@@@@@@@@@@@@@@@@@@@#@@@@@",
"#@@@@@#######@@@@@@#######@@@@@#",
"##@@@@@@@@@@##@@@@##@@@@@@@@@@##",
".@@@++@@.@@@@#@@@@#@@@@.@@++@@@.",
"@@@++@@@@@@@@#@@@@#@@@@@@@@++@@@",
"@@@@@###@@.@#@@@@@@#@.@@###@@@@@",
".@+@@#@@#@@@#@@@@@@#@@@#@@#@@+@.",
"#@+@@#@@#@@#@@@@@@@@#@@#@@#@@+@#",
"@#@@@#@@###@@@@@@@@@@###@@#@@@#@",
"@@#@@@#@##@@@@@@@@@@@@##@#@@@#@@",
"@@@##@@##@@@@@#@@#@@@@@##@@##@@@",
"@@ @@#@@@##############@@@#@@ @@",
"@@ @@#@@@@@@@@@##@@@@@@@@@#@@ @@",
"@@@  @#@@@@@@@####@@@@@@@#@  @@@",
"@@@@@ @####@@@####@@@####@ @@@@@",
"@@@@@ @@@@  @@@##@@@  @@@@ @@@@@",
"@ @@@@     @@@@@@@@@@     @@@@ @",
"@ @@@@@@@@@ @@@  @@@ @@@@@@@@@ @",
"@@          @ @@@@ @          @@",
"@@@@@@@@@@@@@@@@@@@@@@@@@@@@@@@@",
"@@@@@@@@@@@@@ @OO@ @@@@@@@@@@@@@",
"@@@@@@@@@@@@@@OOOO@@@@@@@@@@@@@@",
"@@@@@@@ @ @@@OO@@OO@@@ @ @@@@@@@",
"@@@@@@@@@@@@@O@@@@O@@@@@@@@@@@@@",
"@@  @@@@@@@@@O@@@@O@@@@@@@@@  @@",
"@@ @@@@o@o@@@O@@@@O@@@o@o@@@@ @@",
"@@@@@@@@@@@@@O@@@@O@@@@@@@@@@@@@",
"@@@@XX@@@@@@@O@@@@O@@@@@@@XX@@@@",
"@ @@@@XXXXXX@O@@@@O@XXXXXX@@@@ @",
"@@@@@@@@@@@@@O@@@@O@@@@@@@@@@@@@"
};
