/* XPM */
static char *exit_closed[] = {
/* columns rows colors chars-per-pixel */
"32 32 2 1 ",
"  c #005BCF",
". c #B28BE5",
/* pixels */
"                                ",
"                                ",
"            ......              ",
"          ...........           ",
"         ..............         ",
"        .................       ",
"       .....       ......       ",
"       .....         ....       ",
"       ....           ....      ",
"       ....           ....      ",
"        ....           ...      ",
"        .....          ...      ",
"         ....         ....      ",
"         .....        ....      ",
"          .....      .....      ",
"           ....     .....       ",
"            ...   .......       ",
"                 .......        ",
"                 ......         ",
"                 ....           ",
"                 ...            ",
"                ....            ",
"                ....            ",
"                ...             ",
"                ...             ",
"                ...             ",
"                                ",
"                                ",
"                                ",
"                ...             ",
"                ...             ",
"                ...             "
};
