/* XPM */
static char *wall[] = {
/* columns rows colors chars-per-pixel */
"32 32 6 1 ",
"  c #E11313",
". c #59C73D",
"X c #FFEA00",
"o c #FAF009",
"O c #005BCF",
"+ c #930F9E",
/* pixels */
"OOOOOOOOOOOOOOOOOOOOOOOOOOOOOOOO",
"OOOOOOOOOOOOOOOOOOOOOOOOOOOOOOOO",
"OOOOOOOOOOOOOOOOOOOOOOOOOOOOOOOO",
"OOOOOOOOOOOOOOOOOOOOOOOOOOOOOOOO",
"OOOOOOOOOOOOOOOOOOOOOOOOOOOOOOOO",
"OOOOOOOOOOOOOOOOOOOOOOOOOOOOOOOO",
"OOOOOOOOOOOOOOOOOOOOOOOOOOOOOOOO",
"OOOOOOOOOOOOOOXXXXOOOOOOOOOOOOOO",
"OOOOOOOOXXXXXXX..XXXXXXXOOOOOOOO",
"OOOOOOOXX.   ......   .XXOOOOOOO",
"OOOOOOOX.O...OOOOOO...O.XOOOOOOO",
"OOOOOOOX.OOOOOOOOOOOOOO.XOOOOOOO",
"OOOOOOOX..OOOOOOOOOOOO..XOOOOOOO",
"OOOOOOOX..OOOOOOOOOOOO..XOOOOOOO",
"OOOOOOXX.OOOOOOOOOOOOOO.XXOOOOOO",
"OOOOOOX..OOOOO+OO+OOOOO..XOOOOOO",
"OOOOOOX..OOOOOoOOoOOOOO..XOOOOOO",
"OOOOOOXX.OOOOOOOOOOOOOO.XXOOOOOO",
"OOOOOOOX..OOOOOOOOOOOO..XOOOOOOO",
"OOOOOOOX..OOOOOOOOOOOO..XOOOOOOO",
"OOOOOOOXX..OOOOOOOOOO..XXOOOOOOO",
"OOOOOOOOXX..OOOOOOOO..XXOOOOOOOO",
"OOOOOOOOOX.++++OO++++.XOOOOOOOOO",
"OOOOOOOOOX............XOOOOOOOOO",
"OOOOOOOOOXXXXXX..XXXXXXOOOOOOOOO",
"OOOOOOOOOOOOOOOXXOOOOOOOOOOOOOOO",
"OOOOOOOOOOOOOOOOOOOOOOOOOOOOOOOO",
"OOOOOOOOOOOOOOOOOOOOOOOOOOOOOOOO",
"OOOOOOOOOOOOOOOOOOOOOOOOOOOOOOOO",
"OOOOOOOOOOOOOOOOOOOOOOOOOOOOOOOO",
"OOOOOOOOOOOOOOOOOOOOOOOOOOOOOOOO",
"OOOOOOOOOOOOOOOOOOOOOOOOOOOOOOOO"
};
